# xmcd
#
# Track frame offsets: 
#        150
#        13052
#        27219
#        40807
#        56395
#        69180
#        84151
#        101770
#        115613
#        130811
#        145537
#        162221
#        176690
#        190110
#        203967
#        217917
#        234074
#        247098
#        259486
#        274941
#        288586
#        302879
#        316484
#        331925
#
# Disc length: 4620 seconds
#
# Revision: 0
# Processed by: cddbd v1.5.1PL0 Copyright (c) Steve Scherf et al.
# Submitted via: ExactAudioCopy v0.95b1
#
DISCID=4f120a18
DTITLE=MAXIM TURBULENC - NA DIVOKEM ZAPADE 2in1
DYEAR=1900
DGENRE=
TTITLE0=BURAKY
TTITLE1=JOE
TTITLE2=BEDNA OD WHISKY
TTITLE3=CHODIM PO BROADWAYI
TTITLE4=COLORADO
TTITLE5=HLIDAC KRAV
TTITLE6=VSICHNI JSOU UZ V MEXIKU
TTITLE7=WHISKY TO JE MOJE GUSTO
TTITLE8=RUTY SUTI ARIZONA TEXAS
TTITLE9=JA TAJNE CVICIM
TTITLE10=PODVOD
TTITLE11=UDELAME ROTACI
TTITLE12=VARILA MYSICKA KASICKU
TTITLE13=KOMARI SE ZENILI
TTITLE14=DEFILE U MORE
TTITLE15=AT ZIJI DUCHOVE
TTITLE16=JOZIN Z BAZIN
TTITLE17=BABINSKEJ
TTITLE18=VECERNICEK
TTITLE19=DESET MALICH CERNOUSKU
TTITLE20=KAZDY DEN
TTITLE21=MUZIKANTOVA PISNICKA
TTITLE22=DELANI
TTITLE23=JEDE JEDE MASINKA
EXTD=
EXTT0=
EXTT1=
EXTT2=
EXTT3=
EXTT4=
EXTT5=
EXTT6=
EXTT7=
EXTT8=
EXTT9=
EXTT10=
EXTT11=
EXTT12=
EXTT13=
EXTT14=
EXTT15=
EXTT16=
EXTT17=
EXTT18=
EXTT19=
EXTT20=
EXTT21=
EXTT22=
EXTT23=
PLAYORDER=
